<?xml version="1.0" standalone="no"?>
<!DOCTYPE svg PUBLIC "-//W3C//DTD SVG 20010904//EN"
 "http://www.w3.org/TR/2001/REC-SVG-20010904/DTD/svg10.dtd">
<svg version="1.0" xmlns="http://www.w3.org/2000/svg"
 width="720.000000pt" height="480.000000pt" viewBox="0 0 720.000000 480.000000"
 preserveAspectRatio="xMidYMid meet">
<metadata>
Created by potrace 1.13, written by Peter Selinger 2001-2015
</metadata>
<g transform="translate(0.000000,480.000000) scale(0.100000,-0.100000)"
fill="#000000" stroke="none">
<path d="M3517 4564 c-31 -37 -77 -102 -77 -109 0 -3 6 -5 13 -5 21 0 47 -38
46 -68 -1 -19 -3 -22 -6 -8 -3 11 -8 14 -12 8 -9 -15 -43 -19 -48 -4 -3 6 2
12 11 12 22 0 20 23 -3 37 -16 10 -25 7 -60 -19 -31 -24 -38 -35 -29 -45 14
-18 32 -17 25 2 -9 22 8 27 26 7 19 -21 17 -133 -3 -156 -6 -8 -11 -30 -9 -48
1 -18 -3 -46 -10 -61 -6 -16 -11 -33 -11 -38 0 -5 -4 -9 -10 -9 -5 0 -10 -9
-10 -21 0 -12 -18 -44 -40 -72 -39 -48 -42 -75 -8 -62 14 6 58 78 58 96 0 5
10 26 23 47 13 20 32 59 43 87 10 27 21 54 23 58 2 5 -6 4 -18 -3 -18 -9 -16
-2 13 39 28 40 32 50 20 55 -20 8 -8 26 17 26 12 0 19 7 19 20 0 11 4 20 9 20
15 0 42 62 35 82 -4 12 0 18 11 18 8 0 18 7 21 15 9 23 50 18 66 -7 23 -35 30
-76 28 -162 -1 -54 2 -76 9 -72 6 4 11 2 11 -3 0 -6 5 -11 11 -11 7 0 9 10 5
25 -5 20 -3 25 13 25 23 0 61 -45 61 -72 0 -25 29 -68 46 -68 11 0 14 13 12
52 -3 52 15 79 29 41 8 -22 63 -72 81 -73 7 0 10 -5 6 -11 -10 -16 26 -131 48
-152 10 -10 18 -32 18 -51 0 -18 11 -70 25 -116 14 -45 31 -115 40 -155 14
-71 18 -86 31 -122 4 -10 8 -42 10 -72 2 -30 15 -88 28 -130 14 -42 30 -94 35
-116 10 -39 51 -72 72 -59 5 3 15 -1 23 -9 19 -18 56 -88 56 -104 0 -7 5 -13
10 -13 6 0 15 -12 20 -26 9 -23 12 -24 27 -13 13 11 17 11 20 2 6 -15 43 -17
43 -3 0 6 -6 13 -14 16 -8 3 -36 33 -62 67 -54 69 -69 83 -101 97 -13 5 -23
18 -23 29 0 10 -6 24 -13 30 -8 6 -19 30 -26 53 -7 24 -17 57 -22 74 -12 41
-12 171 1 179 6 3 10 14 10 23 0 9 11 40 25 67 13 28 25 60 25 73 0 13 6 22
15 22 20 0 19 29 -1 37 -9 3 -25 1 -35 -5 -33 -21 -59 -14 -70 18 -6 17 -15
30 -20 30 -5 0 -9 5 -9 12 0 19 -102 249 -135 303 -16 27 -47 67 -68 87 -20
21 -37 41 -37 45 0 5 -9 14 -21 21 -18 11 -24 11 -38 -2 -23 -21 -30 -20 -24
4 3 11 9 20 14 20 5 0 9 5 9 10 0 6 -6 10 -14 10 -15 0 -58 62 -66 97 -3 12
-40 61 -84 108 -91 99 -113 106 -159 49z"/>
<path d="M1828 4339 c-21 -11 -38 -26 -38 -34 0 -8 -8 -15 -18 -15 -20 0 -52
-29 -52 -46 0 -6 -13 -23 -30 -39 -16 -16 -30 -36 -30 -46 0 -9 -9 -19 -20
-22 -11 -3 -20 -12 -20 -21 0 -9 -4 -16 -8 -16 -5 0 -38 -35 -75 -77 -36 -43
-76 -89 -89 -102 -26 -28 -58 -73 -58 -83 0 -12 45 -5 63 11 10 9 21 11 26 5
14 -16 33 -107 23 -113 -15 -10 -24 -49 -12 -56 16 -10 12 -25 -9 -25 -21 0
-47 -52 -36 -71 4 -6 2 -15 -5 -19 -16 -10 -50 -96 -50 -125 0 -14 -10 -24
-30 -32 -16 -6 -30 -18 -30 -27 0 -9 -6 -16 -13 -16 -19 0 -77 -50 -77 -66 0
-8 6 -14 13 -15 6 0 2 -4 -11 -9 -12 -5 -25 -18 -28 -27 -9 -27 -20 -53 -48
-112 -14 -30 -26 -61 -26 -68 0 -7 -11 -31 -25 -53 -26 -41 -29 -57 -19 -84
10 -25 18 -19 53 34 26 39 31 56 26 82 -5 28 -3 35 17 43 14 6 22 18 21 30 -1
10 5 24 12 29 7 6 19 31 25 55 9 36 29 61 96 127 46 45 84 85 84 89 0 4 -7 13
-15 19 -9 7 -12 16 -6 25 14 21 29 5 36 -39 10 -56 29 -39 49 43 5 23 3 29
-19 37 -29 11 -34 35 -6 27 10 -2 23 -2 28 2 20 13 41 67 36 94 -4 20 -1 27
11 27 16 0 21 28 17 86 -1 12 5 24 13 27 8 3 18 23 22 44 4 21 12 44 18 52 13
16 18 48 17 111 -1 56 31 133 75 183 19 20 34 42 34 47 0 6 6 10 13 10 6 0 25
16 40 35 61 76 105 80 132 12 10 -23 19 -55 22 -72 7 -44 22 -60 38 -39 10 15
13 15 18 2 3 -10 -3 -19 -19 -27 -26 -12 -25 -4 -26 -200 0 -75 -2 -86 -22
-102 -12 -10 -33 -38 -46 -62 -20 -38 -22 -48 -11 -61 8 -9 17 -16 22 -16 12
0 88 159 95 200 3 19 13 57 21 83 8 26 13 70 11 97 -3 48 -2 50 22 50 19 0 34
-13 63 -56 20 -30 34 -60 31 -66 -4 -6 1 -17 11 -24 13 -10 15 -17 7 -27 -7
-8 -8 -26 -3 -48 7 -31 2 -95 -9 -134 -2 -5 0 -18 5 -28 4 -10 2 -23 -4 -31
-11 -13 -52 -146 -70 -226 -4 -19 -13 -45 -19 -57 -7 -12 -12 -35 -12 -52 0
-16 -4 -33 -10 -36 -5 -3 -10 -15 -10 -26 0 -10 -16 -37 -36 -58 -39 -40 -64
-97 -64 -144 0 -15 -7 -38 -16 -51 -10 -16 -12 -26 -5 -31 22 -13 10 -23 -14
-12 -23 11 -25 16 -19 55 8 51 -7 55 -25 7 -16 -45 -31 -45 -31 2 0 35 -1 35
-19 19 -16 -15 -19 -15 -31 -1 -7 8 -21 15 -31 15 -10 0 -21 6 -26 12 -5 9 -9
3 -14 -17 -4 -17 -10 -38 -14 -47 -5 -14 -2 -18 14 -18 14 0 21 -6 21 -20 0
-11 -4 -20 -10 -20 -5 0 -10 7 -10 16 0 24 -23 11 -25 -15 -2 -30 -39 -66 -56
-55 -8 5 -24 7 -36 5 -19 -2 -23 2 -23 23 0 23 16 68 41 118 12 24 11 28 -5
28 -15 0 -76 -117 -76 -146 -1 -31 -55 -143 -89 -182 -17 -20 -31 -45 -31 -55
0 -23 -23 -31 -49 -18 -23 13 -40 -4 -22 -22 16 -16 14 -42 -6 -58 -15 -13
-16 -11 -10 19 8 41 4 40 -22 -3 -11 -19 -32 -40 -46 -45 -17 -6 -27 -20 -32
-40 -7 -36 -17 -45 -32 -26 -8 10 -3 32 21 90 21 52 28 80 21 87 -7 7 -19 -12
-36 -58 -46 -125 -88 -201 -128 -237 -21 -20 -46 -36 -54 -36 -13 0 -35 -29
-35 -47 0 -5 12 -10 26 -11 22 -2 24 0 14 13 -14 16 -6 35 16 35 8 0 14 -8 14
-19 0 -10 6 -24 14 -30 11 -9 17 -6 30 14 20 30 32 32 39 6 4 -16 9 -17 54 -8
39 8 53 17 66 40 13 21 23 28 37 24 15 -4 20 1 22 22 2 18 9 26 23 26 30 0 33
-43 4 -53 -12 -5 -18 -11 -13 -15 8 -4 63 15 83 29 2 2 -4 10 -13 19 -19 19
-21 46 -4 63 19 19 24 15 44 -33 10 -25 22 -45 27 -45 28 0 87 25 87 37 0 7 5
13 10 13 6 0 10 -7 10 -15 0 -25 15 -17 68 37 42 42 50 57 45 76 -5 21 -3 23
15 18 16 -6 31 2 62 30 36 34 40 42 40 86 0 42 3 48 21 48 16 0 20 -5 16 -20
-7 -27 1 -25 28 6 17 20 27 24 48 19 14 -4 28 -13 31 -21 3 -8 15 -14 26 -14
17 0 20 6 20 40 0 28 4 40 14 40 20 0 29 35 17 59 -14 25 -14 41 -1 41 6 0 10
-4 10 -9 0 -5 5 -22 10 -37 l11 -28 24 53 c14 29 22 57 19 62 -3 5 -1 9 4 9 4
0 18 22 30 49 13 28 63 92 122 155 55 59 112 124 127 144 16 20 34 41 41 45
12 8 54 68 80 116 7 14 10 31 8 38 -3 8 1 16 9 19 8 3 17 14 20 25 8 24 31 25
44 1 15 -29 -29 -231 -61 -275 -27 -39 -14 -47 22 -12 20 20 33 45 41 84 6 31
16 64 21 74 14 26 46 207 41 227 -3 10 0 21 6 24 6 4 11 27 11 51 0 25 6 47
13 52 7 4 26 27 43 50 35 51 58 52 62 3 2 -19 8 -40 14 -47 16 -20 27 -82 15
-86 -5 -1 -11 -16 -12 -32 -1 -17 -6 -42 -10 -57 -5 -18 -3 -28 4 -28 16 0 13
-36 -4 -50 -8 -7 -15 -21 -15 -31 0 -10 -4 -21 -10 -24 -5 -3 -10 -16 -10 -28
0 -70 -67 -190 -144 -257 -85 -74 -212 -196 -221 -211 -10 -18 -21 -30 -104
-116 -49 -51 -64 -83 -38 -83 20 0 29 10 111 115 125 160 231 265 267 265 10
0 27 12 38 28 11 15 31 38 45 52 25 26 116 178 116 194 0 5 -8 15 -17 23 -16
13 -16 14 10 8 22 -4 27 -2 27 13 0 10 9 35 20 57 11 22 20 52 20 68 0 23 39
118 81 199 5 10 9 27 9 38 0 11 5 20 10 20 6 0 10 7 10 15 0 8 5 24 12 35 9
13 9 27 2 47 -11 33 -28 37 -32 8 -1 -11 -21 -31 -43 -45 -23 -14 -57 -35 -77
-47 l-37 -22 -33 32 c-30 29 -33 30 -38 12 -8 -27 -71 -67 -95 -60 -11 4 -34
28 -52 54 -33 49 -104 117 -112 109 -3 -3 0 -19 6 -36 8 -24 7 -37 -5 -61 -9
-16 -16 -36 -16 -43 0 -7 -19 -49 -41 -93 -23 -44 -53 -109 -67 -145 -14 -36
-40 -80 -57 -98 -16 -19 -34 -40 -38 -48 -4 -8 -14 -14 -22 -14 -7 0 -18 -13
-24 -30 -12 -34 -19 -37 -36 -13 -12 16 -16 11 -39 -40 -13 -31 -28 -57 -32
-57 -13 0 7 98 36 179 23 61 29 92 24 118 -6 30 -4 35 16 40 17 4 20 11 16 29
-4 16 -2 22 6 19 8 -3 30 22 53 55 22 33 48 63 58 66 22 7 54 38 92 89 16 22
35 44 42 48 19 12 16 27 -7 27 -12 0 -29 -15 -45 -40 -14 -22 -31 -40 -38 -40
-7 0 -41 27 -75 61 -34 33 -62 55 -62 50 0 -6 -4 -11 -10 -11 -5 0 -7 7 -3 16
4 10 0 22 -9 28 -17 13 -185 165 -202 183 -6 7 -31 39 -56 72 -25 33 -52 60
-60 60 -8 0 -32 -9 -52 -20z m681 -586 c-5 -14 -7 -29 -4 -33 10 -16 -18 -140
-34 -154 -36 -31 -57 -28 -77 10 -13 25 -15 38 -8 41 6 2 30 41 53 87 34 69
45 83 61 79 15 -4 17 -9 9 -30z"/>
<path d="M3273 4292 c-33 -42 -113 -97 -119 -82 -5 13 -44 -36 -44 -56 0 -16
-4 -22 -14 -18 -16 6 -56 -29 -56 -48 0 -7 -11 -30 -23 -52 -23 -36 -26 -93
-5 -80 5 3 6 14 3 24 -4 12 1 19 15 23 14 3 20 13 20 31 0 14 6 26 13 26 6 0
24 14 38 32 23 28 29 30 43 19 9 -7 16 -28 16 -46 0 -39 23 -98 34 -88 4 5 6
-3 4 -16 -3 -27 -28 -42 -28 -17 0 9 -4 16 -8 16 -7 0 -46 -127 -48 -155 0 -5
-4 -20 -8 -33 -4 -12 -9 -52 -10 -87 -2 -45 -8 -71 -20 -84 -10 -11 -15 -25
-11 -30 10 -17 25 -13 35 12 6 12 23 42 39 67 16 25 30 52 30 60 1 9 26 47 56
85 54 68 64 88 46 100 -12 7 -63 -43 -56 -55 3 -5 1 -11 -5 -15 -21 -13 -21
25 1 72 14 29 23 69 23 103 2 55 44 210 58 210 7 0 38 53 38 65 0 3 -7 5 -15
5 -8 0 -15 5 -15 10 0 6 7 13 15 16 16 7 21 34 6 34 -5 0 -27 -22 -48 -48z"/>
<path d="M5343 4160 c-39 -24 -133 -119 -133 -136 0 -17 -44 -50 -99 -75 -50
-22 -97 -18 -117 9 -10 13 -15 14 -27 4 -12 -10 -16 -10 -21 3 -7 18 -36 20
-37 3 -1 -7 0 -23 1 -35 1 -22 -31 -45 -69 -47 -7 -1 -17 -11 -22 -24 -16 -43
17 -36 64 12 24 25 49 46 55 46 6 0 19 -11 28 -25 15 -23 15 -31 4 -68 -8 -23
-24 -53 -37 -68 -13 -14 -23 -30 -23 -36 0 -7 -27 -35 -59 -64 -54 -47 -58
-53 -44 -68 15 -14 24 -7 104 77 48 51 91 102 94 113 4 10 14 19 23 19 9 0 30
18 46 40 17 22 35 40 42 40 18 0 39 31 36 53 -3 15 0 18 13 13 11 -4 29 4 51
24 36 31 54 38 54 20 0 -6 -22 -50 -50 -99 -27 -49 -50 -101 -50 -117 0 -15
-8 -36 -17 -46 -12 -13 -13 -22 -6 -29 17 -17 30 -3 42 48 19 76 39 113 63
113 16 0 19 -4 13 -22 -12 -39 -15 -137 -5 -143 6 -3 10 -33 10 -65 0 -32 5
-62 11 -65 6 -4 12 -5 13 -4 2 2 -1 47 -5 99 -12 130 -11 176 7 238 8 29 12
62 9 72 -7 22 22 119 42 140 12 13 16 11 38 -15 13 -17 26 -41 30 -55 3 -14
12 -38 19 -55 47 -104 48 -108 53 -285 3 -96 5 -188 5 -205 -1 -16 2 -37 5
-45 3 -8 7 -28 9 -45 3 -16 15 -54 29 -83 14 -29 25 -61 25 -72 0 -10 4 -21 9
-24 5 -3 9 -21 9 -40 0 -44 23 -91 45 -90 11 1 16 -5 14 -18 -1 -11 8 -27 21
-35 20 -14 22 -14 22 5 0 11 -7 25 -15 32 -8 7 -15 18 -15 25 0 8 -11 27 -25
44 -15 17 -25 40 -24 53 5 46 -13 110 -32 115 -21 6 -26 23 -8 23 8 0 10 14 6
40 -3 22 -1 43 4 46 5 3 9 16 9 29 0 32 27 40 44 12 8 -12 24 -47 36 -77 34
-88 44 -110 52 -110 5 0 8 -11 8 -24 0 -26 23 -51 39 -42 5 3 12 -1 15 -10 4
-9 13 -14 21 -10 9 3 15 0 15 -9 0 -23 22 -29 37 -10 10 14 16 16 24 8 9 -9 7
-16 -6 -29 -15 -16 -15 -18 0 -26 9 -5 28 -34 42 -64 24 -50 72 -104 94 -104
5 0 9 -6 9 -12 0 -7 7 -22 16 -33 12 -17 16 -18 24 -5 8 12 10 12 15 -2 4 -10
14 -14 26 -11 15 4 19 0 19 -21 0 -23 26 -65 87 -143 10 -13 24 -23 31 -23 6
0 12 -6 12 -14 0 -23 63 -68 86 -62 27 7 55 -21 34 -34 -11 -7 -11 -14 0 -39
7 -17 16 -31 21 -31 4 0 16 -16 25 -35 10 -22 23 -35 36 -35 15 0 18 -5 13
-20 -5 -16 0 -23 28 -35 22 -9 37 -23 41 -40 4 -15 14 -25 26 -26 11 -1 33 -2
49 -3 17 0 42 -12 58 -28 16 -16 39 -28 50 -28 14 0 29 -13 43 -35 12 -20 34
-42 48 -49 15 -8 38 -26 51 -40 40 -43 59 -29 21 14 -22 25 -24 33 -39 120 -6
30 -14 75 -20 100 -8 37 -6 48 6 63 9 9 22 17 30 17 17 0 133 -116 133 -133 1
-19 47 -70 59 -66 8 3 -1 22 -22 49 -19 25 -42 61 -52 80 -10 19 -41 57 -70
85 -29 27 -55 57 -58 65 -4 12 -6 11 -6 -2 -1 -10 -5 -18 -11 -18 -12 0 -13
10 -1 29 10 16 -41 101 -60 101 -6 0 -7 4 -4 10 3 5 -3 15 -15 22 -11 7 -20
18 -20 23 0 23 -127 133 -165 144 -20 5 -43 18 -50 28 -13 17 -14 17 -21 0
-10 -28 27 -71 67 -78 40 -6 99 -39 99 -54 0 -17 50 -138 63 -154 12 -14 24
-53 53 -165 13 -51 13 -62 0 -74 -23 -24 -56 1 -56 43 0 38 -6 42 -34 20 -25
-19 -36 -11 -36 25 0 25 -22 50 -44 50 -10 0 -34 -60 -25 -66 11 -6 12 -34 2
-34 -5 0 -16 12 -26 25 -17 24 -17 25 2 44 20 20 20 20 -2 55 -23 36 -42 45
-50 24 -6 -17 -91 72 -89 92 2 8 -7 33 -18 55 -11 21 -20 47 -20 57 0 20 -16
32 -25 18 -10 -16 -33 -11 -40 9 -6 19 -35 34 -87 45 -22 5 -29 14 -35 44 -4
20 -8 39 -8 42 -1 3 -9 22 -18 44 -9 21 -17 40 -17 42 0 2 -9 13 -21 25 -11
11 -18 27 -15 37 5 14 0 17 -22 16 -17 0 -28 -7 -30 -17 -2 -10 -8 -17 -13
-17 -13 0 -11 24 3 38 8 8 8 15 -1 26 -15 18 -83 16 -89 -2 -4 -14 -32 -16
-32 -4 0 5 12 14 26 21 28 12 28 38 0 33 -13 -2 -16 2 -12 15 8 25 -8 47 -29
39 -14 -5 -16 -2 -11 19 7 29 -18 75 -41 75 -8 0 -11 5 -8 11 8 11 -7 29 -76
92 -10 9 -19 30 -19 46 0 21 -6 32 -20 36 -16 5 -20 15 -20 54 0 27 -3 69 -6
95 -6 42 -5 46 14 46 11 0 29 -10 40 -22 76 -88 147 -158 159 -158 9 0 12 -6
8 -19 -3 -11 3 -28 14 -42 17 -20 20 -21 21 -6 0 10 8 17 21 17 14 0 26 -13
39 -44 22 -49 46 -74 59 -60 5 5 -5 37 -22 73 -34 71 -119 161 -207 219 -70
47 -147 119 -166 155 -16 29 -34 36 -34 12 0 -17 -16 -20 -25 -4 -5 7 -14 4
-26 -7 -17 -15 -19 -15 -19 -1 0 9 7 20 16 25 26 15 -1 83 -52 132 -24 23 -44
46 -44 52 0 6 -12 29 -27 52 -16 22 -37 58 -47 78 -24 44 -45 51 -83 28z"/>
<path d="M3806 4092 c-2 -4 -1 -14 4 -22 5 -8 6 -26 3 -40 -5 -30 36 -113 72
-145 26 -23 74 -154 80 -220 2 -11 5 -51 9 -90 11 -108 27 -195 37 -195 5 0 7
10 4 23 -3 12 -9 67 -15 122 -5 55 -12 111 -15 125 -3 14 -10 54 -16 90 -13
82 -39 142 -84 192 -41 45 -55 76 -55 123 0 33 -13 54 -24 37z"/>
<path d="M4758 3813 c-16 -37 -18 -39 -26 -26 -11 17 -64 3 -69 -18 -3 -11
-13 -19 -22 -19 -22 0 -91 -71 -91 -93 0 -9 -5 -17 -11 -17 -5 0 -7 5 -3 11 3
6 -8 3 -25 -5 -30 -16 -36 -26 -31 -55 1 -12 -1 -13 -14 -2 -8 7 -19 10 -24 7
-5 -3 -16 4 -25 14 -10 12 -23 17 -33 13 -13 -5 -15 -2 -10 15 4 13 2 28 -6
37 -28 34 -52 55 -62 55 -6 0 -5 -4 2 -9 16 -10 12 -43 -5 -49 -7 -2 -13 4
-13 14 0 13 -3 15 -11 7 -9 -9 -1 -23 30 -54 34 -35 41 -48 36 -69 -3 -15 1
-39 10 -56 8 -16 15 -35 15 -42 0 -7 7 -15 15 -18 8 -4 15 -18 15 -33 0 -15 7
-36 15 -47 8 -10 15 -27 15 -36 0 -16 6 -20 27 -17 3 0 11 -7 16 -16 6 -12 5
-20 -4 -27 -10 -7 -8 -8 8 -3 25 7 39 -10 24 -29 -14 -16 -4 -46 15 -46 21 0
17 63 -7 114 -23 47 -21 72 8 83 10 3 27 13 37 22 18 15 19 15 14 -6 -4 -16
-2 -20 8 -16 8 3 14 1 14 -5 0 -6 -5 -12 -12 -14 -6 -2 12 -29 43 -59 63 -65
83 -89 92 -112 3 -9 16 -17 27 -17 11 0 20 -6 20 -14 0 -23 26 -37 55 -30 19
5 23 9 14 15 -7 4 -10 11 -6 15 3 4 13 1 22 -6 13 -10 15 -9 15 10 0 28 24 21
28 -9 2 -15 0 -21 -7 -17 -6 4 -11 0 -11 -9 0 -8 10 -20 23 -25 12 -5 18 -9
13 -9 -4 -1 6 -17 23 -36 17 -20 31 -40 31 -45 0 -5 9 -14 21 -20 19 -11 20
-10 9 10 -6 12 -9 29 -5 38 6 16 7 16 16 0 5 -9 10 -30 12 -46 4 -38 47 -102
67 -102 14 0 40 -41 40 -63 0 -4 14 -29 31 -54 23 -32 34 -42 42 -34 16 16 44
13 51 -4 4 -12 0 -14 -19 -9 -40 10 -40 -19 -1 -80 20 -31 36 -61 36 -66 0 -6
5 -10 10 -10 6 0 10 -8 10 -18 0 -28 33 -55 48 -40 17 17 15 38 -3 38 -22 0
-18 27 5 33 14 4 20 0 20 -12 0 -9 5 -22 12 -29 8 -8 8 -15 0 -24 -10 -13 -3
-83 12 -107 10 -15 96 -6 138 14 25 12 27 11 30 -9 2 -15 10 -21 30 -21 15 0
33 -6 39 -12 7 -7 21 -13 31 -13 10 0 18 -6 18 -12 1 -17 49 -72 57 -64 10 10
33 -15 48 -51 23 -55 50 -38 46 29 -1 29 2 38 14 38 12 0 15 6 10 21 -5 15 -3
20 6 17 20 -7 23 -52 5 -68 -11 -8 -16 -30 -16 -66 0 -51 1 -54 26 -54 25 0
25 2 19 41 -9 54 3 45 39 -28 15 -32 32 -65 36 -73 4 -8 16 -15 26 -15 11 -1
26 -5 33 -10 10 -5 16 -4 19 3 4 14 32 16 32 3 0 -5 -6 -11 -12 -13 -10 -4 -9
-8 2 -19 22 -20 57 -39 73 -39 8 0 22 -9 32 -20 16 -18 42 -19 30 0 -3 4 2 13
10 20 8 7 15 19 15 26 0 8 7 14 15 14 17 0 21 -26 4 -32 -15 -5 0 -78 16 -78
7 0 18 6 24 14 12 14 46 11 69 -7 10 -8 14 -5 19 12 5 19 10 21 42 15 20 -4
41 -7 46 -8 14 -2 6 44 -11 61 -8 8 -14 21 -14 29 0 10 -7 13 -22 9 -33 -8
-55 9 -39 29 16 20 6 36 -23 36 -13 0 -29 7 -36 15 -16 19 -30 19 -30 0 0 -9
-7 -18 -16 -22 -10 -3 -37 -25 -63 -49 -25 -23 -50 -40 -55 -37 -5 3 2 14 15
25 24 18 24 18 4 33 -41 29 -66 60 -61 77 2 10 -2 22 -10 29 -8 6 -14 18 -14
25 0 20 -18 17 -32 -6 -14 -22 -30 -27 -22 -7 6 16 -22 84 -42 105 -10 9 -13
24 -9 43 8 33 -2 72 -16 64 -5 -4 -9 -15 -9 -26 0 -23 -9 -24 -24 -3 -14 18
-105 26 -125 11 -10 -8 -16 -7 -25 5 -12 17 -31 19 -52 5 -6 -3 -20 3 -30 14
-16 18 -20 19 -30 5 -10 -14 -14 -14 -43 0 -34 17 -37 23 -18 46 15 20 57 33
57 19 0 -6 -4 -11 -10 -11 -16 0 -12 -27 5 -34 8 -3 15 0 15 6 0 6 8 4 18 -5
25 -23 32 -21 32 8 0 16 6 25 16 25 9 0 14 6 11 13 -2 7 -18 11 -37 9 -32 -2
-32 -1 -26 29 6 32 -9 73 -24 64 -4 -3 -6 -14 -3 -26 5 -17 2 -20 -18 -17 -13
2 -30 -4 -37 -12 -11 -13 -14 -13 -25 4 -7 11 -20 28 -30 39 -14 14 -16 22 -8
30 6 6 11 18 11 27 -1 13 -3 12 -14 -2 -16 -22 -42 -23 -50 -3 -7 19 -25 19
-46 0 -9 -8 -30 -17 -46 -20 -23 -5 -32 -2 -42 16 -9 14 -10 25 -4 31 7 7 12
3 17 -11 3 -12 11 -21 16 -21 28 0 37 129 10 138 -10 3 -12 -2 -8 -24 5 -30
-7 -64 -23 -64 -5 0 -30 18 -55 40 -25 22 -53 40 -61 40 -21 0 -87 73 -128
142 -20 33 -36 63 -36 67 0 5 -7 14 -15 21 -7 6 -17 32 -21 56 -3 24 -10 46
-14 49 -9 6 -5 139 5 170 3 11 11 28 16 37 21 40 -4 53 -35 19 -15 -16 -15
-19 -2 -24 10 -4 13 -13 9 -23 -5 -15 -7 -15 -16 1 -7 13 -11 14 -17 5 -15
-24 -31 1 -25 38 12 70 15 79 45 118 16 21 37 48 45 59 8 10 15 25 15 32 0 7
4 13 9 13 5 0 26 20 47 45 30 37 34 48 24 60 -7 8 -16 15 -20 15 -12 0 -44
-53 -43 -72 1 -10 -4 -15 -11 -12 -8 3 -28 -14 -47 -38 -19 -24 -37 -44 -41
-46 -4 -2 -15 -19 -24 -38 -9 -19 -22 -34 -28 -34 -7 0 -31 -14 -55 -31 -32
-24 -41 -37 -37 -52 3 -13 -5 -30 -25 -51 -30 -30 -31 -30 -24 -6 4 14 11 29
16 34 5 6 9 14 9 18 0 13 -28 9 -37 -4 -4 -7 -24 -13 -43 -13 -31 0 -35 -3
-32 -22 4 -31 -16 -29 -30 2 -6 14 -17 25 -24 25 -27 0 -24 56 5 65 9 3 47 36
84 73 48 49 66 73 61 85 -4 12 -13 15 -33 11 -46 -10 -51 -13 -51 -33 0 -11
-4 -23 -10 -26 -5 -3 -10 3 -10 14 0 11 -5 23 -11 27 -7 4 -9 22 -6 45 3 22 2
39 -1 39 -11 -1 -62 -72 -62 -87 0 -7 -7 -13 -15 -13 -8 0 -15 -7 -15 -15 0
-20 -26 -19 -34 1 -7 19 4 40 66 125 46 65 64 79 94 79 18 0 18 -24 -1 -40 -8
-7 -15 -19 -15 -26 0 -20 29 -17 37 4 8 22 40 66 76 105 21 23 25 33 16 43
-19 23 -48 16 -61 -13z"/>
<path d="M1312 3745 c-7 -14 -12 -34 -12 -45 0 -10 -4 -21 -9 -24 -4 -3 -16
-27 -26 -53 -10 -26 -29 -63 -42 -81 -14 -18 -22 -36 -19 -39 3 -4 -4 -17 -16
-30 -19 -20 -19 -23 -4 -23 10 0 14 -5 11 -11 -4 -6 -13 -8 -21 -5 -9 4 -19
-4 -26 -22 -6 -15 -19 -45 -29 -67 -18 -38 -42 -118 -59 -195 -4 -19 -15 -52
-24 -72 -18 -42 -20 -58 -8 -58 11 0 36 58 57 130 9 30 25 74 35 97 11 24 17
50 13 59 -5 12 -2 15 13 11 15 -5 25 4 47 40 16 26 25 53 22 63 -3 10 0 22 7
27 14 8 29 37 75 142 15 36 38 85 50 110 20 42 20 46 5 58 -24 17 -27 16 -40
-12z"/>
<path d="M981 3310 c-34 -66 -82 -151 -106 -187 -25 -37 -45 -73 -45 -80 0 -7
-5 -13 -12 -13 -6 0 -39 -26 -73 -57 -74 -68 -92 -83 -101 -83 -4 0 -25 -15
-48 -34 -23 -18 -55 -41 -73 -50 -41 -21 -61 -54 -38 -62 9 -4 14 -13 11 -20
-7 -19 10 -26 24 -9 6 8 9 24 5 37 -6 21 -5 22 8 6 8 -10 21 -18 29 -18 17 0
98 -117 98 -142 0 -8 -11 -32 -25 -52 -14 -20 -25 -41 -25 -45 0 -5 -10 -15
-22 -24 -26 -17 -24 -23 12 -31 21 -5 29 -1 46 26 11 18 24 50 28 71 4 22 13
37 21 37 9 0 15 10 15 26 0 14 11 40 25 56 16 19 22 34 17 42 -5 6 -9 28 -9
49 -1 37 0 38 17 22 18 -16 20 -15 39 16 12 19 21 44 21 57 0 12 5 22 10 22
14 0 70 118 70 147 0 12 4 24 9 27 5 4 17 32 27 64 9 31 22 63 27 70 8 10 7
16 -4 24 -11 8 -11 9 3 4 14 -4 21 5 32 45 9 27 29 70 46 95 24 36 28 49 20
65 -6 10 -12 19 -14 19 -2 0 -32 -54 -65 -120z"/>
<path d="M4000 3339 c0 -5 6 -40 14 -77 25 -124 36 -188 36 -220 0 -35 19 -85
79 -214 23 -48 41 -95 41 -105 0 -17 11 -56 36 -126 8 -20 14 -49 14 -62 0
-14 5 -25 10 -25 17 0 16 7 -42 205 -12 39 -25 79 -29 90 -73 190 -88 256 -57
263 29 6 93 -63 128 -140 37 -80 51 -78 24 4 -13 39 -33 68 -83 117 -85 84
-116 143 -145 274 -6 26 -26 39 -26 16z"/>
<path d="M6103 3312 c3 -29 1 -45 -9 -53 -19 -16 -18 -24 12 -56 33 -37 94
-141 94 -162 0 -10 7 -26 15 -37 15 -18 16 -17 9 16 -3 19 -10 39 -15 45 -5 5
-9 17 -9 27 0 19 -31 79 -61 117 -20 25 -25 56 -11 65 18 11 172 -116 172
-141 0 -6 7 -16 15 -23 9 -7 25 -35 37 -62 11 -26 27 -48 35 -48 8 0 12 -4 8
-9 -9 -15 56 -100 71 -94 8 3 14 9 14 15 0 16 -32 73 -47 81 -7 5 -11 12 -8
18 4 5 -6 14 -20 21 -16 7 -24 17 -20 26 5 14 -4 26 -77 105 -21 22 -38 44
-38 48 0 4 -9 10 -19 14 -10 3 -29 20 -41 38 -19 28 -73 73 -104 86 -5 2 -7
-15 -3 -37z"/>
<path d="M2489 2898 c-84 -103 -88 -108 -98 -108 -5 0 -12 -9 -16 -19 -3 -11
-16 -23 -28 -27 -12 -3 -32 -15 -43 -26 -17 -15 -30 -18 -56 -13 -30 6 -34 10
-30 31 4 20 0 24 -21 24 -20 0 -30 -8 -42 -34 -9 -19 -14 -40 -10 -45 3 -6 0
-8 -9 -5 -17 7 -40 -31 -32 -53 8 -20 -4 -39 -14 -23 -12 19 -40 4 -40 -22 0
-33 47 -85 62 -70 9 9 9 12 -3 12 -18 0 -42 37 -29 45 5 3 21 -7 35 -21 19
-19 29 -23 34 -15 4 6 15 9 25 5 12 -5 19 -1 23 15 3 11 9 21 13 21 5 0 10 10
12 23 2 14 11 23 24 25 12 2 30 12 39 22 9 10 23 16 31 13 8 -3 18 5 24 21 5
15 17 29 25 32 8 4 15 14 15 24 0 10 13 23 30 30 18 7 37 26 45 44 8 17 35 56
60 86 24 30 44 58 45 63 1 20 -24 1 -71 -55z"/>
<path d="M4460 2800 c0 -18 41 -112 55 -126 7 -8 20 -14 29 -14 13 0 36 -26
60 -68 5 -7 -1 -15 -14 -20 -21 -8 -21 -9 9 -46 17 -21 31 -45 31 -53 0 -8 6
-13 13 -12 6 1 20 -1 31 -6 11 -5 21 -3 26 5 5 8 9 9 14 1 4 -6 4 -16 1 -21
-13 -21 16 -79 47 -95 37 -18 43 -15 29 14 -6 12 -16 30 -21 41 -6 12 -7 20
-1 20 6 0 18 -16 27 -35 13 -29 20 -34 38 -29 11 4 23 8 25 10 7 6 -11 24 -25
24 -23 0 -18 66 8 92 l21 21 -6 -32 c-4 -19 -2 -41 6 -54 6 -12 13 -23 13 -25
1 -1 13 2 28 8 25 9 26 8 16 -11 -7 -11 -9 -27 -6 -35 3 -7 -4 -20 -15 -28
-13 -9 -17 -16 -10 -21 6 -3 20 -23 30 -42 13 -27 25 -37 45 -38 14 0 26 3 26
7 0 4 -7 8 -15 8 -25 0 -17 24 15 45 16 11 31 28 32 37 3 16 6 17 31 3 28 -14
57 -11 57 7 0 5 8 8 18 7 30 -3 34 1 17 17 -9 9 -13 19 -10 23 4 3 11 -2 16
-12 6 -9 17 -17 26 -17 14 0 13 -3 -4 -22 -11 -13 -23 -31 -27 -42 -5 -15 -9
-16 -21 -6 -20 17 -45 -3 -45 -36 0 -15 -6 -24 -15 -24 -18 0 -20 31 -4 47 15
15 3 34 -16 26 -8 -3 -18 -23 -21 -44 -4 -23 -12 -39 -20 -39 -8 0 -14 -6 -14
-13 0 -22 12 -28 28 -14 13 10 14 8 8 -15 -7 -31 4 -36 28 -13 8 8 17 15 20
15 11 0 6 -76 -6 -88 -9 -9 -9 -12 0 -12 21 0 31 37 29 108 -1 39 0 72 3 75
10 9 70 -6 68 -17 -3 -15 42 -66 59 -66 7 0 24 -22 38 -49 13 -27 29 -52 34
-55 16 -10 42 6 54 33 l11 26 4 -27 c7 -56 144 -133 160 -89 3 10 -1 12 -16 9
-17 -5 -21 -2 -19 16 1 15 -3 21 -15 20 -15 -2 -18 7 -18 45 0 40 -4 48 -27
59 -15 6 -33 12 -40 12 -17 0 -44 43 -53 83 -4 17 -12 31 -18 30 -6 -2 -23 22
-37 53 -18 39 -31 54 -41 50 -10 -4 -20 7 -31 34 -13 29 -24 40 -43 42 -23 3
-25 7 -22 45 2 37 -1 42 -20 45 -17 2 -22 9 -21 26 4 34 -19 26 -49 -17 -24
-33 -26 -41 -13 -51 8 -6 19 -9 25 -5 5 3 10 2 10 -3 0 -12 -47 -25 -60 -17
-4 3 -6 14 -3 25 5 21 -11 28 -22 10 -9 -15 -25 -12 -25 4 0 7 9 16 20 19 27
7 25 35 -2 39 -18 2 -23 10 -24 36 -1 17 2 32 6 32 8 0 22 42 16 47 -8 8 -56
-21 -56 -34 0 -16 -22 -17 -38 -1 -8 8 -12 8 -12 1 0 -6 -10 -13 -22 -17 -17
-4 -29 1 -45 21 -17 20 -25 25 -34 16 -8 -8 -3 -22 18 -54 27 -42 33 -48 50
-52 4 -1 22 -17 40 -36 31 -33 31 -35 17 -63 -18 -36 -28 -36 -21 0 3 15 0 35
-8 46 -16 21 -25 17 -72 -31 -12 -13 -31 -23 -43 -23 -25 0 -27 17 -2 23 11 2
5 7 -18 13 -26 8 -40 20 -55 50 -32 61 -49 84 -62 84 -7 0 -16 8 -22 17 -5 10
-18 18 -27 18 -13 0 -21 11 -27 42 -5 28 -18 51 -38 68 -32 26 -49 32 -49 15z"/>
<path d="M903 2711 c-13 -32 -23 -65 -23 -74 0 -9 -6 -20 -13 -24 -12 -7 -64
-94 -106 -175 -14 -27 -10 -58 9 -58 16 0 97 109 135 181 35 67 44 112 25 124
-7 4 -8 11 -1 18 13 17 18 60 6 63 -5 2 -20 -23 -32 -55z"/>
<path d="M3575 1930 c-48 -12 -81 -33 -127 -82 -89 -95 -98 -112 -105 -201 -5
-57 -3 -70 13 -88 12 -13 17 -32 15 -54 -2 -27 2 -35 19 -40 23 -7 35 -1 35
18 0 28 20 19 23 -10 3 -28 0 -33 -17 -33 -24 0 -28 -15 -6 -24 8 -3 15 -12
15 -20 0 -8 25 -37 55 -65 57 -51 137 -144 168 -194 10 -15 22 -49 27 -77 8
-41 6 -55 -8 -80 -9 -16 -25 -33 -34 -36 -9 -3 -28 -18 -42 -35 -43 -50 -84
-62 -179 -49 -45 7 -82 12 -83 13 0 1 -17 36 -37 78 -20 41 -37 88 -37 102 0
15 -4 35 -9 45 -5 9 -12 25 -15 35 -3 10 -10 17 -15 15 -20 -7 -81 -100 -81
-122 0 -13 -7 -26 -15 -30 -29 -11 -15 -47 38 -98 28 -27 66 -57 82 -66 29
-16 187 -34 179 -20 -8 13 17 19 32 7 23 -19 89 -14 129 10 20 11 44 21 54 21
24 0 126 90 124 110 -1 9 9 20 26 27 24 9 32 22 51 82 34 112 17 178 -78 289
-33 39 -50 51 -63 47 -11 -4 -19 -2 -19 3 0 6 5 12 11 14 13 4 -41 62 -67 72
-9 3 -23 1 -31 -6 -11 -9 -17 -9 -24 3 -8 12 -13 10 -29 -10 -11 -13 -23 -21
-27 -17 -3 3 -3 6 2 6 4 0 2 7 -5 15 -7 8 -21 15 -31 15 -18 0 -25 20 -20 58
1 7 -11 12 -34 12 -40 0 -45 9 -14 28 19 12 20 15 5 31 -17 19 -22 36 -7 26 5
-3 12 -1 16 5 12 19 25 10 25 -19 0 -25 3 -28 25 -23 18 3 25 0 25 -12 0 -9 7
-16 17 -16 15 0 15 1 0 18 -10 10 -17 28 -17 40 0 11 -10 28 -22 37 -19 13
-21 18 -10 35 16 27 15 70 -2 70 -9 0 -12 8 -8 25 4 24 22 36 22 15 0 -22 30
-8 78 35 41 37 56 44 75 40 28 -7 47 12 26 26 -16 10 -52 10 -94 -1z"/>
<path d="M3816 1922 c-3 -5 -31 -10 -62 -11 -32 0 -59 -3 -61 -5 -8 -7 83 -49
103 -48 12 1 28 -5 35 -14 11 -13 9 -14 -17 -8 l-29 7 18 -24 c27 -37 45 -80
52 -121 3 -21 10 -38 14 -38 4 0 31 24 60 54 64 68 67 96 14 150 -29 30 -43
37 -65 34 -21 -4 -27 -1 -26 11 3 17 -27 28 -36 13z"/>
<path d="M4585 1890 c-122 -27 -197 -56 -223 -87 -12 -16 -27 -33 -32 -40 -13
-16 -13 -43 0 -43 6 0 10 -6 10 -14 0 -9 -7 -12 -20 -9 -15 4 -22 -2 -30 -23
-6 -16 -20 -39 -32 -51 -11 -11 -18 -29 -16 -39 2 -15 8 -10 26 19 17 29 28
38 45 35 33 -5 34 -46 1 -96 -32 -49 -44 -53 -44 -13 0 24 -4 29 -27 29 -45 0
-47 -8 -13 -43 31 -32 32 -35 19 -64 -13 -30 -29 -41 -29 -21 0 18 -16 10 -29
-14 -10 -19 -10 -27 0 -44 10 -17 10 -23 0 -36 -19 -22 -41 -20 -41 4 0 30
-27 24 -33 -7 -4 -16 -11 -49 -17 -75 -20 -94 -29 -143 -29 -168 l0 -25 18 23
c24 28 31 28 31 -1 0 -14 -12 -32 -29 -45 -34 -25 -43 -71 -33 -182 l7 -75 40
4 c22 1 45 6 50 9 6 4 18 8 28 9 48 8 54 19 61 110 9 112 25 208 42 250 13 31
61 74 97 86 9 4 17 11 17 17 0 5 8 10 18 11 9 0 40 11 67 24 l50 24 -32 11
c-20 7 -33 19 -33 28 0 34 12 61 25 56 14 -6 95 91 95 113 0 8 11 24 24 34 36
28 84 136 92 207 7 63 -6 116 -29 125 -7 2 -48 -4 -92 -13z m59 -113 c7 -47
-7 -88 -56 -162 -14 -22 -32 -64 -39 -92 -13 -52 -17 -57 -50 -54 -10 1 -27
-14 -39 -34 -18 -29 -20 -38 -10 -50 8 -9 8 -15 2 -15 -6 0 -12 5 -14 11 -3 8
-11 5 -22 -7 -12 -11 -15 -19 -7 -22 6 -2 11 -11 11 -19 0 -10 -6 -14 -20 -10
-11 3 -34 0 -50 -6 -46 -17 -61 4 -31 44 19 25 20 33 10 46 -11 12 -9 18 11
33 20 15 23 21 13 31 -11 11 -13 10 -13 -5 0 -9 -4 -14 -10 -11 -8 5 -6 14 17
54 2 2 11 -2 20 -10 15 -11 16 -11 6 1 -18 20 -16 60 2 60 18 0 19 -12 3 -28
-9 -9 -9 -12 0 -12 6 0 19 17 29 38 25 54 66 118 126 194 41 53 58 68 78 68
24 0 27 -5 33 -43z"/>
<path d="M677 1802 l-38 -27 -125 9 c-104 7 -128 6 -135 -5 -4 -8 -12 -14 -16
-15 -21 -2 -43 -18 -43 -30 0 -8 -9 -14 -20 -14 -34 0 -120 -128 -120 -179 0
-13 -7 -29 -16 -35 -19 -15 -28 -105 -14 -142 9 -22 13 -24 25 -14 8 7 22 9
31 6 15 -6 15 -8 -1 -26 -15 -16 -15 -22 -5 -35 20 -24 55 -17 89 17 39 40 37
65 -9 96 -19 12 -43 42 -53 64 l-19 42 28 53 c24 44 38 58 79 78 48 23 54 23
145 13 93 -11 97 -11 153 15 31 14 57 24 57 22 0 -1 -18 -32 -39 -67 -52 -85
-131 -240 -131 -256 0 -7 -4 -20 -9 -30 -14 -25 -31 -106 -31 -146 0 -37 7
-42 54 -37 42 3 61 -43 30 -74 -20 -19 -12 -29 24 -30 34 0 44 -34 13 -42 -14
-3 -21 -13 -21 -29 0 -15 -6 -24 -16 -24 -14 0 -14 3 -4 15 23 27 1 29 -26 2
-24 -24 -25 -29 -14 -62 14 -41 27 -45 36 -10 3 14 10 25 15 25 13 0 11 -14
-3 -28 -8 -8 -5 -14 16 -22 19 -7 26 -15 22 -25 -3 -8 -8 -21 -11 -28 -4 -8 5
-18 21 -26 26 -11 26 -12 8 -30 -11 -10 -27 -16 -36 -13 -12 3 -18 -1 -18 -12
0 -10 4 -15 9 -11 23 14 20 -19 -4 -43 -19 -18 -23 -28 -13 -30 7 -3 25 -15
39 -29 l26 -24 18 41 c16 35 71 90 91 90 13 0 134 91 134 102 0 6 11 21 25 34
14 13 25 34 25 49 0 14 -1 25 -3 25 -1 0 -39 -35 -83 -77 -85 -83 -140 -121
-155 -106 -7 7 -5 85 16 433 3 47 7 128 10 180 10 190 21 252 65 348 17 35 30
72 30 83 0 29 -56 24 -103 -9z"/>
<path d="M2829 1796 c-2 -2 -17 -6 -34 -9 -66 -10 -113 -28 -120 -45 -31 -76
-76 -219 -72 -232 3 -12 -5 -14 -47 -12 l-51 4 -1 -56 c0 -52 1 -55 25 -58 22
-3 26 -7 23 -32 -2 -16 3 -33 10 -38 11 -6 10 -10 -2 -17 -8 -6 -11 -13 -7
-17 4 -5 17 1 28 13 17 17 19 24 10 42 -7 11 -9 21 -6 21 11 0 50 -41 51 -53
3 -32 16 -47 34 -37 25 13 27 13 33 -10 8 -30 27 -24 27 8 0 15 6 34 12 40 10
10 10 15 -2 22 -12 7 -12 12 4 29 10 11 15 25 10 32 -4 8 -3 10 4 5 7 -4 12
-2 12 3 0 6 -9 11 -20 11 -11 0 -20 -5 -20 -10 0 -6 -11 -16 -25 -22 -16 -7
-25 -19 -25 -35 0 -29 -16 -30 -24 0 -8 30 -7 47 2 46 22 -3 51 16 55 37 2 13
0 24 -4 24 -5 0 -9 5 -9 10 0 14 20 12 54 -5 27 -14 28 -14 23 5 -4 17 0 22
24 27 30 6 41 33 14 33 -23 0 -18 27 11 65 14 18 24 39 23 47 -2 7 4 29 13 48
8 19 18 54 21 78 7 41 7 42 -21 42 -16 0 -31 -2 -33 -4z"/>
<path d="M6937 1623 c-56 -4 -59 -5 -73 -40 -9 -19 -13 -42 -10 -50 3 -8 -5
-25 -17 -39 -13 -14 -32 -48 -42 -77 -18 -52 -78 -189 -94 -217 -5 -8 -16 -14
-25 -14 -20 2 -30 -29 -22 -71 8 -41 -23 -142 -59 -197 -14 -21 -25 -40 -25
-43 0 -3 -18 -30 -39 -59 -66 -90 -140 -119 -192 -77 -20 16 -23 28 -23 73 1
30 9 78 19 107 21 64 12 80 -33 54 -35 -20 -37 -25 -22 -54 14 -26 -4 -25 -31
2 -11 11 -18 27 -15 35 3 8 1 14 -4 14 -6 0 -10 -14 -10 -31 0 -17 -9 -42 -20
-56 -24 -31 -26 -51 -5 -59 18 -7 20 -34 3 -35 -7 0 -3 -5 10 -12 17 -8 22
-16 18 -31 -3 -12 -6 -29 -6 -38 0 -10 -6 -18 -12 -18 -8 0 -13 -12 -13 -29 0
-16 4 -27 8 -24 5 3 11 -4 14 -16 4 -18 13 -21 54 -21 44 0 51 3 59 26 6 14
10 36 10 50 0 13 5 24 10 24 6 0 10 -16 10 -35 0 -22 5 -35 13 -35 17 0 92 50
135 90 35 32 52 32 52 0 0 -10 5 -22 10 -25 6 -3 7 -17 4 -31 -3 -13 0 -39 7
-57 33 -80 97 -88 216 -27 108 56 166 107 161 143 l-3 27 -48 -34 c-62 -44
-101 -60 -132 -52 -22 6 -25 12 -25 52 0 25 6 60 14 77 7 18 19 48 26 67 7 19
21 53 30 75 9 22 34 85 55 140 21 55 45 116 53 135 11 24 12 35 3 38 -12 4
-16 33 -3 31 18 -3 32 2 32 11 0 6 9 30 20 52 24 50 25 58 5 58 -8 0 -15 5
-15 10 0 6 5 10 10 10 6 0 10 18 10 41 0 24 4 38 10 34 6 -3 10 -15 10 -26 0
-10 5 -19 10 -19 6 0 10 7 10 15 0 8 8 29 18 47 26 47 42 97 33 102 -14 9 -84
13 -144 9z"/>
<path d="M2111 1501 c-11 -7 -11 -10 2 -17 21 -12 5 -39 -18 -31 -9 4 -13 11
-10 17 7 12 -15 13 -31 2 -20 -13 -104 -187 -104 -215 0 -17 -4 -25 -12 -22
-7 3 -24 -12 -38 -32 -13 -21 -42 -59 -62 -84 -21 -25 -38 -49 -38 -53 0 -5
-28 -36 -61 -71 -70 -71 -126 -98 -155 -74 -30 25 -46 77 -35 112 13 40 25
109 22 122 -1 5 2 26 8 45 11 37 61 244 61 253 0 4 -17 0 -38 -7 -21 -8 -64
-19 -95 -26 -41 -8 -62 -18 -73 -35 -8 -12 -14 -27 -13 -31 1 -5 0 -16 -3 -24
-8 -21 -28 -96 -28 -104 0 -3 9 -6 19 -6 30 0 51 -11 51 -26 0 -13 -54 -48
-75 -49 -19 0 -35 -115 -15 -115 6 0 10 -5 10 -11 0 -6 -8 -8 -17 -5 -14 4
-24 -6 -42 -42 -28 -56 -117 -132 -155 -132 -14 0 -26 3 -26 8 0 4 -12 20 -26
36 -24 27 -26 27 -44 11 -10 -9 -23 -14 -28 -11 -5 3 -12 -3 -15 -14 -4 -15 2
-24 24 -35 30 -16 38 -31 17 -33 -71 -9 -82 -17 -44 -31 28 -11 35 -31 10 -31
-8 0 -13 -4 -10 -8 10 -16 112 -4 154 18 34 18 137 120 163 163 10 15 39 0 39
-19 0 -10 10 -39 22 -65 24 -54 52 -69 116 -65 70 5 195 105 266 213 15 23 34
44 42 47 8 3 14 10 14 15 0 5 12 23 28 40 15 17 33 50 41 75 10 34 16 43 30
39 24 -6 95 105 80 123 -7 8 -6 14 1 19 5 3 10 0 10 -7 0 -7 9 -19 20 -26 11
-7 20 -19 20 -28 0 -25 19 -6 41 44 33 73 71 124 82 113 7 -7 4 -19 -7 -36
-19 -28 -14 -45 13 -45 18 0 41 -18 41 -33 0 -4 -9 -5 -20 -2 -12 4 -27 2 -35
-5 -7 -6 -22 -10 -31 -8 -13 2 -24 -9 -36 -34 l-18 -38 34 -44 c46 -60 70
-127 63 -171 -10 -63 -76 -126 -134 -128 -35 -1 -66 24 -99 79 -11 18 -12 17
-19 -11 -4 -16 -20 -51 -36 -77 l-29 -48 23 -12 c41 -22 128 -13 198 21 62 31
179 139 179 167 0 6 6 17 14 23 8 6 17 33 22 59 11 66 11 67 -8 64 -17 -3 -17
-1 0 27 13 24 14 33 4 43 -9 9 -12 8 -12 -10 0 -13 -6 -22 -15 -22 -8 0 -15 5
-15 10 0 6 5 10 10 10 28 0 -6 69 -40 83 -12 4 -11 6 3 6 23 1 22 26 -3 51
-11 11 -20 32 -20 46 0 14 -8 39 -17 55 -17 29 -33 38 -33 19 0 -20 -21 -9
-30 15 -11 28 -10 28 -29 16z"/>
<path d="M4611 1425 c-43 -11 -63 -31 -45 -44 21 -14 73 -106 63 -110 -6 -2
-15 2 -19 9 -18 29 -45 4 -75 -70 -16 -41 -33 -77 -36 -80 -3 -3 -8 -14 -11
-25 -3 -11 -20 -58 -37 -105 -37 -102 -38 -127 -7 -182 25 -45 45 -54 115 -57
26 -1 31 2 23 12 -12 14 -28 124 -38 249 -5 68 -9 85 -20 81 -8 -3 -14 -1 -14
5 0 5 7 12 15 16 8 3 15 15 15 26 0 11 4 20 9 20 15 0 34 -91 32 -157 -2 -55
0 -62 15 -56 14 5 16 2 10 -23 -18 -79 -18 -102 -1 -128 21 -32 45 -30 114 12
24 15 51 32 60 37 33 20 81 64 89 82 12 32 175 180 216 197 41 17 76 21 76 9
0 -5 -14 -30 -30 -58 -73 -123 -95 -178 -94 -235 1 -61 14 -93 47 -114 33 -22
95 -26 143 -8 41 15 42 16 47 71 4 45 1 60 -14 77 -28 30 -23 76 20 204 22 63
37 118 35 122 -8 13 6 68 17 68 5 0 9 -7 9 -16 0 -25 19 -6 40 41 11 24 17 51
14 59 -4 11 -1 16 10 16 9 0 16 5 16 10 0 6 -13 10 -28 10 -22 0 -41 -14 -84
-63 -39 -44 -74 -72 -119 -94 -84 -41 -91 -34 -66 61 19 71 19 77 3 101 -43
66 -167 -3 -205 -114 -17 -52 -13 -81 14 -117 14 -18 25 -36 25 -41 0 -5 -24
-33 -54 -62 -30 -30 -57 -63 -60 -75 -3 -12 -20 -30 -37 -41 -18 -11 -48 -30
-68 -42 -20 -13 -51 -23 -68 -23 -46 0 -52 32 -19 104 14 31 26 58 26 61 0 2
17 39 37 82 25 53 37 93 37 123 0 25 6 51 13 58 22 22 15 59 -18 97 -34 39
-58 42 -138 20z"/>
<path d="M1120 1409 c-19 -5 -55 -19 -81 -30 -48 -22 -47 -19 -78 -152 -15
-65 -14 -84 8 -115 11 -15 22 -44 26 -64 5 -33 3 -38 -14 -38 -11 0 -23 5 -26
10 -7 11 -25 4 -25 -10 0 -5 21 -23 46 -41 33 -22 49 -28 57 -20 7 7 14 7 24
0 20 -18 46 9 41 42 -3 16 -1 26 4 23 12 -8 16 11 27 106 8 72 25 153 56 277
6 26 -5 28 -65 12z"/>
<path d="M5833 1329 c-69 -11 -132 -42 -187 -90 -76 -67 -87 -93 -90 -216 -4
-129 -3 -121 -19 -98 -26 34 -40 8 -34 -63 12 -147 139 -224 326 -195 55 8 74
25 33 31 -26 4 -20 22 9 22 10 0 19 5 19 10 0 6 7 10 15 10 8 0 15 -7 15 -15
0 -19 30 -19 55 -2 21 16 12 39 -13 30 -16 -5 -16 -5 0 13 14 14 20 15 30 6 7
-7 18 -12 26 -12 23 0 91 84 78 97 -7 7 -102 -43 -130 -68 -31 -29 -113 -34
-168 -10 -76 32 -141 152 -104 189 10 11 16 12 16 4 0 -17 25 -15 41 4 10 13
10 17 -2 24 -7 5 -24 7 -36 3 -18 -4 -23 -1 -23 15 0 15 -8 22 -27 24 -39 4
-39 24 -2 59 27 26 31 34 21 49 -13 22 -4 34 15 19 10 -9 13 -8 13 5 0 9 6 16
13 16 7 0 24 15 37 33 13 17 30 36 37 40 7 5 11 11 9 15 -8 14 81 12 100 -2
10 -8 23 -29 29 -47 10 -28 8 -39 -14 -83 -14 -28 -35 -59 -48 -69 -13 -10
-23 -22 -23 -27 0 -16 39 2 55 26 8 13 20 24 25 24 17 0 11 -30 -7 -37 -20 -7
-53 -38 -53 -50 0 -4 5 -2 12 5 7 7 23 12 35 12 39 0 127 63 147 105 28 58 17
122 -25 157 -30 25 -53 33 -129 42 -14 2 -49 -1 -77 -5z"/>
<path d="M2608 1226 c-9 -13 -26 -26 -37 -29 -26 -6 -26 0 -3 26 16 20 16 20
-1 14 -10 -4 -25 -7 -33 -7 -19 0 -18 -29 3 -52 15 -17 15 -19 -1 -37 -11 -12
-15 -25 -10 -33 5 -7 7 -20 6 -29 -2 -12 5 -16 23 -16 14 0 32 -6 40 -13 14
-12 13 -15 -5 -32 -11 -10 -24 -17 -29 -14 -4 3 -6 -5 -4 -18 4 -17 -1 -27
-16 -35 -20 -11 -20 -13 -5 -36 11 -17 26 -25 45 -25 16 0 29 5 29 10 0 6 -9
10 -20 10 -23 0 -26 13 -6 29 11 10 16 8 24 -6 6 -10 12 -16 14 -13 13 21 38
74 38 82 0 6 11 26 25 44 29 38 30 44 10 44 -8 0 -15 -4 -15 -10 0 -5 -4 -10
-9 -10 -5 0 -8 14 -6 32 2 22 9 34 24 39 25 10 27 36 4 61 -15 16 -15 21 -3
28 8 5 11 12 7 16 -4 4 -18 -5 -31 -19 -31 -34 -38 -34 -30 -2 8 31 -6 32 -28
1z"/>
<path d="M6394 1205 c-27 -14 -70 -44 -96 -68 l-46 -42 8 -50 c4 -27 8 -42 9
-32 1 12 5 15 14 10 6 -4 20 -6 30 -5 9 2 20 -4 23 -12 10 -27 28 -17 64 36
49 74 86 113 123 136 29 17 37 17 71 6 40 -14 56 -11 56 11 0 21 -29 28 -121
31 -76 3 -93 0 -135 -21z"/>
<path d="M2683 993 c-11 -27 -28 -67 -38 -90 -9 -23 -14 -46 -11 -52 12 -19
64 -12 131 19 62 28 70 37 65 69 -1 10 6 12 25 9 14 -3 28 -1 31 3 3 5 -1 9
-9 9 -8 0 -17 7 -21 15 -6 17 -68 14 -74 -4 -5 -15 -22 -14 -22 2 0 7 -13 25
-28 40 l-28 27 -21 -47z"/>
<path d="M453 914 c5 -24 -18 -250 -28 -276 -3 -9 -14 -19 -23 -22 -9 -3 -30
-15 -47 -26 -52 -34 -65 -41 -65 -35 0 14 -60 -28 -94 -65 -48 -54 -72 -106
-56 -126 9 -10 8 -17 -3 -29 -21 -20 -5 -70 31 -104 22 -20 33 -23 73 -18 113
14 261 123 280 207 10 43 3 90 -13 90 -5 0 -5 6 0 16 5 8 5 41 0 72 -4 31 -14
112 -22 180 -8 67 -20 130 -26 140 -10 15 -11 15 -7 -4z m-41 -404 c-4 -47
-34 -115 -84 -187 -29 -43 -77 -63 -113 -49 -27 10 -39 52 -27 93 11 38 113
153 135 153 7 0 23 9 37 20 40 31 56 22 52 -30z"/>
</g>
</svg>
